<?xml version="1.0" encoding="utf-8"?>
<!-- Generator: Adobe Illustrator 24.3.0, SVG Export Plug-In . SVG Version: 6.00 Build 0)  -->
<svg version="1.1" id="Layer_1" xmlns="http://www.w3.org/2000/svg" xmlns:xlink="http://www.w3.org/1999/xlink" x="0px" y="0px"
	 viewBox="0 0 1190.2 347.2" style="enable-background:new 0 0 1190.2 347.2;" xml:space="preserve">
<style type="text/css">
	.st0{fill:#333333;}
	.st1{fill-rule:evenodd;clip-rule:evenodd;fill:url(#SVGID_1_);}
	.st2{fill-rule:evenodd;clip-rule:evenodd;fill:url(#SVGID_2_);}
	.st3{fill-rule:evenodd;clip-rule:evenodd;fill:url(#SVGID_3_);}
	.st4{fill-rule:evenodd;clip-rule:evenodd;fill:url(#SVGID_4_);}
	.st5{fill:#003258;}
</style>
<g>
	<g>
		<g>
			<path class="st0" d="M1053.6,253.4C1054.3,253.4,1053,253.4,1053.6,253.4L1053.6,253.4z"/>
			<g>
				<linearGradient id="SVGID_1_" gradientUnits="userSpaceOnUse" x1="1157.0398" y1="114.0134" x2="1054.8925" y2="273.5312">
					<stop  offset="0" style="stop-color:#489142"/>
					<stop  offset="9.375811e-02" style="stop-color:#539841"/>
					<stop  offset="0.4956" style="stop-color:#7DB43D"/>
					<stop  offset="0.8113" style="stop-color:#96C63B"/>
					<stop  offset="1" style="stop-color:#A0CC3A"/>
				</linearGradient>
				<path class="st1" d="M1186.6,221c-8.4-8.4-20.8-11.1-36.2-11.1c-9,0-20.3-0.1-33.5-0.1l15.1-19.8c3.5-4.6,4.1-10.9,1.4-16.1
					c-10.9-20.9-29.6-11.6-53.6-11.6c-25.6,0-42.6-16.4-30.7-44.6c6.6,0.4,13.3-1.2,19.3-4.9c6.7-4.1,11.4-10.1,13.9-16.9
					c-7.2-0.8-14.7,0.6-21.4,4.7c-6.4,3.9-11,9.7-13.6,16.1c-4.5,5.1-21.5,25.5-21.5,43.2c0,18.8,13.2,34.9,36.9,34.9
					c24.6,0,27.7-3.2,36.6-0.8c6.5,1.7,10,7.3,6.5,15.9c-13.8,0.1-29.3,0.3-46.2,0.8c-18.8,0.6-30.5-2.8-38.3-10.1l-20.7,29.6
					c8.4,8.4,19.7,12.3,34.8,11.8c50.9-1.6,87,0,105,0c21.1,0,28.5,14.7,22.9,25.7l0.8,0.5l23.5-31
					C1191.4,232.3,1191,225.4,1186.6,221z"/>
				<linearGradient id="SVGID_2_" gradientUnits="userSpaceOnUse" x1="1040.7679" y1="39.5586" x2="938.6206" y2="199.0764">
					<stop  offset="0" style="stop-color:#489142"/>
					<stop  offset="9.375811e-02" style="stop-color:#539841"/>
					<stop  offset="0.4956" style="stop-color:#7DB43D"/>
					<stop  offset="0.8113" style="stop-color:#96C63B"/>
					<stop  offset="1" style="stop-color:#A0CC3A"/>
				</linearGradient>
				<path class="st2" d="M1054.6,39.1c0-14.8-5.1-28.3-13.6-39.1c-8.5,10.8-13.6,24.3-13.6,39.1s5.1,28.3,13.6,39.1
					C1049.5,67.4,1054.6,53.9,1054.6,39.1z"/>
				<linearGradient id="SVGID_3_" gradientUnits="userSpaceOnUse" x1="1053.1561" y1="47.4914" x2="951.0088" y2="207.0092">
					<stop  offset="0" style="stop-color:#489142"/>
					<stop  offset="9.375811e-02" style="stop-color:#539841"/>
					<stop  offset="0.4956" style="stop-color:#7DB43D"/>
					<stop  offset="0.8113" style="stop-color:#96C63B"/>
					<stop  offset="1" style="stop-color:#A0CC3A"/>
				</linearGradient>
				<path class="st3" d="M1040.2,113.2c2.1-9.8,1.1-20.4-3.7-30.1c-4.8-9.7-12.5-17-21.6-21.4c-2.1,9.8-1.1,20.4,3.7,30.1
					C1023.4,101.6,1031.1,108.9,1040.2,113.2z"/>
				<linearGradient id="SVGID_4_" gradientUnits="userSpaceOnUse" x1="1070.2235" y1="58.4205" x2="968.0761" y2="217.9383">
					<stop  offset="0" style="stop-color:#489142"/>
					<stop  offset="9.375811e-02" style="stop-color:#539841"/>
					<stop  offset="0.4956" style="stop-color:#7DB43D"/>
					<stop  offset="0.8113" style="stop-color:#96C63B"/>
					<stop  offset="1" style="stop-color:#A0CC3A"/>
				</linearGradient>
				<path class="st4" d="M1052,92.9c9.1-4.4,16.8-11.6,21.6-21.4c4.8-9.7,5.8-20.3,3.7-30.1c-9.1,4.4-16.8,11.6-21.6,21.4
					C1050.9,72.5,1049.9,83.1,1052,92.9z"/>
			</g>
		</g>
		<path class="st5" d="M1060.2,253.5c-4.6,0-6.2,0-6.7,0c-0.9,0-4.6,0.2-17.7,0.5c-6.3,0-15.8,0-21.8-0.8c-21.5-2.8-35.7-19-41.1-40
			c-5.2-20.2-6.9-49.1-3.5-96.7c0.4-5.3,0.5-10.6-0.4-15.8c-2.9-16.4-13-23.3-13.1-23.3l-24.9,31.2c0,0,11.1,7,11.1,40.4
			c0,4.8-0.2,10.2-0.4,16c-12.1,3.8-33,20.1-41.8,27.1c-19.6,15.5-31.5,39.8-14.3,57.8l23,21.7l38.1-36.4c8,27.9,27,50.3,70.8,50.3
			c7,0,18-0.2,32.7-0.2c21.1,0,28.5,15,22.8,26.1l0.8,0.5l23.5-31c3.7-4.9,3.2-11.8-1.1-16.2C1088,256.1,1075.6,253.5,1060.2,253.5z
			 M930.6,234.4c0,0,0.9-0.7-12.9-12.3c-13.8-11.6-13.6-18.2-13.6-18.2c2.5-3.7,28.2-20.1,37.3-25.9c-0.3,14.3,0,30.1,2.6,45.1
			C938.8,228.7,930.6,234.4,930.6,234.4z"/>
		<polygon class="st5" points="1024.1,316.3 994.2,296.8 971.4,326.9 1002.4,347.2 1017.2,327.6 1047.1,347.2 1070,317.1 
			1038.9,296.8 		"/>
		<polygon class="st5" points="894.5,161 925.6,157.5 924.2,124.5 891.9,128.1 892.8,149.5 861.8,153 863.1,186 895.4,182.4 		"/>
		<polygon class="st5" points="1105,285.1 1136,305.4 1158.9,275.3 1127.8,255 		"/>
		<path class="st5" d="M1008.1,92.9c0-39.1-19.8-56-19.8-56l-22.7,28.5c0,0,15.8,8.6,16.8,40.3c0.2,4.9-0.1,15.2-0.4,20.2
			c-2.1,42.1-0.4,74.3,9.1,93.6l21.8-31.7C1005.9,171.3,1008.1,149,1008.1,92.9z"/>
	</g>
	<g>
		<polygon class="st0" points="28.7,132.6 36.3,139 42.9,131.5 35,124.7 29.1,131.5 21.6,125 15,132.6 22.9,139.2 		"/>
		<path class="st0" d="M63.9,156.8c1.8,7.2,2.7,14.3,2.7,21.5c-3.4,1.1-7.5,1.6-12.4,1.6h-0.7h-1.1c-3.5,0-6-0.5-7.3-1.6
			c-1.4-1.1-2-3.1-2-6.1v-27.6c-6.8,0-13.1,1.1-18.8,3.2c-5.7,2.1-10.4,5.4-13.9,9.7c-3.6,4.3-5.4,9.3-5.4,14.8
			c0,4.8,1.9,8.5,5.6,10.8c3.7,2.4,8.8,3.6,15.3,3.6c2.6,0,5.5-0.2,8.7-0.6c2.3,4.9,7,7.4,14.1,7.4h4.9H54c4,0,8-0.5,11.8-1.4
			c3.9-0.9,7-2.1,9.3-3.5c1.3-4,2-9.2,2-15.6c0-6.4-0.7-12.6-2.1-18.6L63.9,156.8z M32.4,173.5v1.1c-1,0.1-2.5,0.2-4.3,0.2
			c-4.3,0-7.5-0.5-9.8-1.6c-2.3-1.1-3.4-2.4-3.4-4.1c0-2.3,1.6-4.7,4.9-7.1c3.2-2.4,7.5-3.9,12.7-4.6V173.5z"/>
		<polygon class="st0" points="62.2,207.5 54.7,201 48.1,208.6 56,215.2 61.8,208.6 69.4,214.9 76,207.5 68,200.7 		"/>
		<polygon class="st0" points="141.7,200.8 135.9,207.6 128.4,201.1 121.8,208.7 129.7,215.3 135.5,208.7 143.1,215 149.7,207.6 		
			"/>
		<path class="st0" d="M232.2,193.4L232.2,193.4h0.6c3.6,0,7.4-0.4,11.2-1.3c3.8-0.9,6.8-1.9,9-3.1c1-3.1,1.6-6.7,1.9-10.7
			c0.3-4,0.4-9.6,0.4-16.7c0-7.8,0-19.9-0.1-36.5l-12.1,1c0.2,16,0.3,28.4,0.3,37.4c0,6.2-0.1,11.3-0.4,15.3c-3.1,0.7-6.5,1-10.2,1
			h-0.8h0h-1.4c-3.7,0-6.7-0.5-8.9-1.6c-2.2-1.1-5.4-3.6-9.6-7.4c-5.4-5-8.8-8-10.1-9.1c-7.7-6.7-13.9-10-18.7-10
			c-3.5,0-6.5,1.1-9,3.3c-2.5,2.2-4.7,5.7-6.5,10.5l8.4,3.2c1.1-1.9,2.1-3.2,3-3.8s2.1-1,3.6-1c3.4,0,9.8,4.5,19.3,13.6
			c-8.7,1.6-20.4,2.5-35.1,2.5h-3.6h0h-0.6c-4.8,0-8.9-0.5-12.3-1.6c0.4-2.2,0.6-4.6,0.6-7.4v-12.8l-11.3,0.8v13.2
			c0,2.5-0.8,4.4-2.5,5.7c-1.7,1.3-5,2-10.1,2h-1.4h-2.4c-5.4,0-9-1.9-10.8-5.6c-0.4-0.7-0.7-1.4-1.1-2.3c-0.3-0.8-0.6-1.6-0.8-2.2
			c-0.2-0.7-0.5-1.6-0.8-2.7s-0.5-2-0.7-2.6c-0.2-0.6-0.4-1.6-0.8-3.2s-0.6-2.6-0.8-3.2l-11.2,3.4c2.6,9.2,3.9,16,3.9,20.5
			c0,5.3-1.4,9.9-4.1,13.6c-2.8,3.7-7.1,5.6-13.1,5.6c-1.7,0-3.3-0.1-4.9-0.4l-1,11.2c3,0.6,5.9,0.9,8.8,0.9c7,0,12.5-2.1,16.6-6.4
			c4.1-4.2,6.7-9.9,7.8-17c2.9,2.5,6.9,3.8,12.2,3.8h3.4h2.6c7.3,0,12.7-1.4,16.2-4.3c4,2.9,9.4,4.3,16.2,4.3h2.5h0h1.3
			c16.8,0,32.8-2,47.8-6.1c2.8,2.3,5.5,3.8,8.2,4.8c2.6,0.9,5.7,1.4,9.3,1.4H232.2z"/>
		<polygon class="st0" points="197,139.1 188.3,131.7 181.1,140.1 189.8,147.3 		"/>
		<polygon class="st0" points="279.2,125.1 267.3,126.1 267.3,193.4 279.2,193.4 		"/>
		<path class="st0" d="M336.6,211c9.5,0,16.9-2.4,22.1-7.3c5.2-4.8,7.8-11.6,7.8-20.2c0-3.3-0.3-22.8-0.9-58.4l-11.8,1
			c0.6,39,0.9,58.5,0.9,58.7c0,3.7-1.4,6.7-4.3,9c-2.9,2.3-6.8,3.5-11.7,3.5c-9.2,0-13.9-4.1-13.9-12.2c0-4.3,1.2-9.7,3.7-16
			l-9.8-3.8c-4.1,8.4-6.2,16.1-6.2,23c0,7.2,2.1,12.7,6.2,16.6C323,209,328.9,211,336.6,211z"/>
		<path class="st0" d="M489.4,177.8c-2.1,0-4.1-1-6.1-3c-2-2-3-4.6-3-7.6c0-2.4,0.9-4.3,2.6-5.8c1.8-1.5,4-2.2,6.7-2.2
			c2.8,0,6.3,0.7,10.6,2l3.1-10.4c-5.7-2.4-11.1-3.6-16.2-3.6c-5.4,0-9.8,1.7-13.2,5.1c-3.4,3.4-5.1,8-5.1,13.9
			c0,5,1.7,9.5,5.2,13.4c-3.3,0.2-6.3,0.3-8.9,0.3h-2.2c0,0,0,0-0.1,0v0h-2.1c-3.1,0-5.2-0.6-6.4-1.7c-1.2-1.1-2.2-3.5-3-7.2
			c-3-12.3-8.8-18.4-17.4-18.4c-4.8,0-8.6,1.2-11.4,3.7c-2.8,2.4-5.4,6-7.9,10.8c-0.1,0.2-0.2,0.3-0.3,0.5c-0.1,0.2-0.2,0.4-0.3,0.5
			c-0.1,0.1-0.1,0.3-0.2,0.4c-1.1,2.2-1.9,3.8-2.4,4.7c-0.5,1-1.2,2.1-2.2,3.3c-0.9,1.3-1.9,2.1-2.9,2.6c-1,0.5-2.2,0.7-3.5,0.7
			h-1.6h-1c-3.4,0-5.9-0.9-7.5-2.6c-1.6-1.8-2.5-4.7-2.5-8.9v-43.3l-12,1v44.7c0,7.4,1.4,13,4.3,16.9c2.9,3.8,7.8,5.7,14.8,5.7h3.9
			h0.8c4.5,0,8.3-1.5,11.5-4.4c5.1,3,11.4,4.5,19,4.5c5.8,0,10.9-1.2,15.3-3.7c2.8,2.4,6.8,3.6,12.2,3.6h2.7v0c0,0,0,0,0.1,0h1.1
			c8.2,0,15.7-0.6,22.5-1.8c6.8-1.2,14.4-3.3,22.8-6.3l-2.7-11.6C497.4,176.4,491.6,177.8,489.4,177.8z M434,181.1
			c-5,0-9.5-0.8-13.5-2.3l0.9-1.7c2.5-5,4.6-8.2,6.2-9.8c1.6-1.6,3.5-2.4,5.8-2.4c2.5,0,4.3,1.1,5.5,3.3c1.2,2.2,2.5,6,3.8,11.5
			C440.2,180.6,437.3,181.1,434,181.1z"/>
		<path class="st0" d="M515.5,143c6.5,13.9,9.8,25.6,9.8,35.2v1.7c-3.1-0.1-6.9-0.4-11.2-0.9v12.6c4.7,1.5,10,2.3,15.9,2.3
			c9.9,0,17.2-2.8,22.1-8.3c3.5,5.3,9,7.9,16.6,7.9h2.6h0h0.6c3.6,0,7.4-0.4,11.2-1.3c3.8-0.9,6.8-1.9,9-3.1c1-3.1,1.6-6.7,1.9-10.7
			c0.3-4,0.4-9.6,0.4-16.7c0-7.8,0-19.9-0.1-36.5l-12.1,1c0.2,16,0.3,28.4,0.3,37.4c0,6.2-0.1,11.3-0.4,15.3c-3.1,0.7-6.5,1-10.2,1
			h-0.8h0h-2.1c-3.2,0-5.5-0.9-7-2.6c-1.4-1.7-2.2-4.9-2.2-9.5v-42.7l-11.9,1v40.5c0,3.9-0.9,6.9-2.7,9c-1.8,2.1-5.3,3.4-10.5,4
			c0.1-2.4,0.2-4.1,0.2-5.2c0-6.9-0.7-13.1-2.1-18.5c-1.4-5.4-3.6-11.1-6.7-17.1L515.5,143z"/>
		<path class="st0" d="M511.7,137.9c7-2.7,13.9-4.6,20.8-5.8l-1.1-5.9c-4,0.8-6.6,1.2-8,1.2c-1.7,0-3-0.5-3.9-1.4
			c-0.9-0.9-1.3-2-1.3-3.3c0-1.1,0.4-2,1.3-2.6c0.9-0.6,2-0.9,3.4-0.9c1.6,0,3.3,0.3,5.1,0.8l2-5.3c-2.5-1.3-5.1-1.9-7.7-1.9
			c-2.8,0-5.1,0.8-7,2.5c-1.9,1.7-2.9,4-2.9,6.9c0,3.4,1.2,5.9,3.7,7.6c-1.4,0.5-3.5,1.3-6.1,2.5L511.7,137.9z"/>
		<polygon class="st0" points="651.1,132.6 658.6,139 665.2,131.5 657.3,124.7 651.5,131.5 643.9,125 637.3,132.6 645.2,139.2 		"/>
		<path class="st0" d="M675.9,193.4L675.9,193.4h0.5c4,0,8-0.5,11.8-1.4c3.9-0.9,7-2.1,9.3-3.5c1.3-4,2-9.2,2-15.6
			c0-6.4-0.7-12.6-2.1-18.6l-11.1,2.5c1.8,7.2,2.7,14.3,2.7,21.5c-3.4,1.1-7.5,1.6-12.4,1.6h-0.7h0h-1.1c-3.5,0-6-0.5-7.3-1.6
			c-1.4-1.1-2-3.1-2-6.1v-27.6c-6.8,0-13.1,1.1-18.8,3.2c-5.7,2.1-10.4,5.4-13.9,9.7c-3.6,4.3-5.4,9.3-5.4,14.8
			c0,4.8,1.9,8.5,5.6,10.8c3.7,2.4,8.8,3.6,15.3,3.6c2.6,0,5.5-0.2,8.7-0.6c2.3,4.9,7,7.4,14.1,7.4H675.9z M654.8,173.5v1.1
			c-1,0.1-2.5,0.2-4.3,0.2c-4.3,0-7.5-0.5-9.8-1.6c-2.3-1.1-3.4-2.4-3.4-4.1c0-2.3,1.6-4.7,4.9-7.1c3.2-2.4,7.5-3.9,12.7-4.6V173.5z
			"/>
		<polygon class="st0" points="690.4,200.7 684.5,207.5 677,201 670.4,208.6 678.3,215.2 684.2,208.6 691.7,214.9 698.3,207.5 		"/>
		<polygon class="st0" points="722.7,125.1 710.7,126.1 710.7,193.4 722.7,193.4 		"/>
		<path class="st0" d="M764.6,189.2c2.7,2.8,6.7,4.2,12,4.2h1.9h0.5c4,0,8-0.5,11.8-1.4c3.9-0.9,7-2.1,9.3-3.5c1.3-4,2-9.2,2-15.6
			c0-6.4-0.7-12.6-2.1-18.6l-11.1,2.5c1.8,7.2,2.7,14.3,2.7,21.5c-3.4,1.1-7.5,1.6-12.4,1.6h-0.7h-0.8c-2.7,0-4.6-0.6-5.8-1.9
			c-1.2-1.3-2.6-4.1-4.3-8.4c-1.3-3.1-2.3-5.7-3.3-7.6c-0.9-1.9-2.3-4.5-4.3-7.6s-4.1-5.9-6.5-8.4l-8.7,8.5
			c5.8,6.8,10.1,13.6,12.6,20.4c0.4,0.9,0.9,2.2,1.5,4c-4.2,1.3-9.4,1.9-15.6,1.9c-3.4,0-7.4-0.2-11.9-0.5v13.5c3,0.4,7,0.7,12,0.7
			C751.5,194.3,758.5,192.6,764.6,189.2z"/>
		<polygon class="st0" points="778.7,208.7 787.4,215.9 794.5,207.8 785.9,200.3 		"/>
		<path class="st0" d="M35.1,253c3.2-2,4.8-5,4.8-9.1c0-3.7-1.4-6.5-4.3-8.4c-2.9-1.9-6.8-2.9-11.9-2.9H10.2v43.8H25
			c5.2,0,9.2-1.1,12.1-3.3c2.9-2.2,4.3-5.4,4.3-9.7C41.5,258.5,39.3,255,35.1,253z M18.9,240.2h4.9c4.8,0,7.2,1.7,7.2,5.1
			c0,3.7-1.9,5.5-5.6,5.5h-6.4V240.2z M30.5,267.5c-1.4,0.8-3.5,1.3-6.2,1.3h-5.4v-11.2H25c5,0,7.6,1.9,7.6,5.8
			C32.6,265.3,31.9,266.7,30.5,267.5z"/>
		<path class="st0" d="M61.6,243.7c-4.6,0-8.3,1.5-11.2,4.6c-2.9,3.1-4.3,7.1-4.3,12.1c0,5.1,1.6,9.2,4.7,12.2
			c3.1,3,7.2,4.5,12.3,4.5c4.2,0,7.8-0.7,10.9-2.1l-1.4-6.9c-2.9,1.2-5.8,1.8-8.7,1.8c-5,0-8-2.4-8.8-7.3h19.8
			c0.2-1.7,0.2-3.3,0.2-4.8c0-4.2-1.2-7.6-3.7-10.3C68.9,245,65.7,243.7,61.6,243.7z M66.9,257.4H55c0.3-2.1,1-3.8,2.2-5
			c1.1-1.2,2.6-1.8,4.4-1.8c1.7,0,3,0.6,3.9,1.7s1.4,2.6,1.4,4.4V257.4z"/>
		<path class="st0" d="M100.8,244.1c-1.4-0.3-2.7-0.4-3.9-0.4c-5.1,0-9.2,1.6-12.4,4.7c-3.1,3.1-4.7,7.3-4.7,12.5
			c0,5,1.5,9,4.5,11.9c3,2.9,7.2,4.3,12.5,4.3c4.7,0,8.8-0.9,12.4-2.6v-43.5l-8.6,0.4V244.1z M100.8,269.2c-1,0.5-2.3,0.8-3.9,0.8
			c-2.5,0-4.5-0.8-6-2.4c-1.4-1.6-2.2-4-2.2-7c0-3.2,0.7-5.6,2.2-7.3c1.5-1.6,3.6-2.5,6.5-2.5c1,0,2.1,0.2,3.4,0.6V269.2z"/>
		<path class="st0" d="M128.4,243.7c-4.2,0-7.8,0.6-10.8,1.9l1.6,6.8c2.4-1,5.2-1.5,8.3-1.5c4.3,0,6.4,1.9,6.4,5.6v1.5
			c-2.1-0.3-3.9-0.5-5.6-0.5c-3.8,0-6.8,0.9-9.1,2.7c-2.3,1.8-3.4,4.2-3.4,7.2c0,2.9,1.1,5.3,3.3,7.1c2.2,1.8,5.4,2.7,9.5,2.7
			c5.5,0,10.1-0.9,13.6-2.8V257c0-4.3-1.2-7.6-3.5-9.9C136.4,244.8,132.9,243.7,128.4,243.7z M133.8,270.1c-1.1,0.6-2.5,0.9-4.4,0.9
			c-3.5,0-5.2-1.3-5.2-4c0-2.7,1.7-4.1,5.1-4.1c1.4,0,2.9,0.2,4.4,0.5V270.1z"/>
		<path class="st0" d="M166.3,257.4c-0.8,3.5-2.1,7-3.7,10.5c-4.4-7.3-6.7-15.1-7.1-23.5h-8.7c0.5,6,1.6,11.3,3.3,16
			c1.8,4.7,4.4,9.4,7.9,14.1c-0.9,1.5-2.3,2.9-4.3,4c-1.9,1.1-3.9,1.9-5.8,2.2l1.4,7.3c7.2-1.2,13.2-6,18-14.4
			c5.3-9.4,8.3-19.1,9.1-29.2h-8.6C167.6,249.6,167.1,253.9,166.3,257.4z"/>
		<path class="st0" d="M192.5,243.7c-4.2,0-7.8,0.6-10.8,1.9l1.6,6.8c2.4-1,5.2-1.5,8.3-1.5c4.3,0,6.4,1.9,6.4,5.6v1.5
			c-2.1-0.3-3.9-0.5-5.6-0.5c-3.8,0-6.8,0.9-9.1,2.7c-2.3,1.8-3.4,4.2-3.4,7.2c0,2.9,1.1,5.3,3.3,7.1c2.2,1.8,5.4,2.7,9.5,2.7
			c5.5,0,10.1-0.9,13.6-2.8V257c0-4.3-1.2-7.6-3.5-9.9C200.5,244.8,197.1,243.7,192.5,243.7z M197.9,270.1c-1.1,0.6-2.5,0.9-4.4,0.9
			c-3.5,0-5.2-1.3-5.2-4c0-2.7,1.7-4.1,5.1-4.1c1.4,0,2.9,0.2,4.4,0.5V270.1z"/>
		<path class="st0" d="M248.3,269.2c-7.8,0-11.7-4.8-11.7-14.5c0-10,3.9-15,11.8-15c2,0,4.8,0.6,8.5,1.9l2-7.6
			c-3.5-1.5-7-2.3-10.6-2.3c-6.8,0-11.9,2.1-15.5,6.3c-3.6,4.2-5.4,9.7-5.4,16.7c0,6.8,1.8,12.3,5.4,16.3c3.6,4,8.7,6,15.2,6
			c4.3,0,8-0.9,11.3-2.6l-1.8-7.7C254.3,268.4,251.2,269.2,248.3,269.2z"/>
		<path class="st0" d="M280.5,243.7c-2.5,0-4.7,0.4-6.4,1.3V231l-8.6,0.4v44.9h8.6V252c1.7-0.8,3.4-1.2,5.1-1.2
			c4.1,0,6.2,2.1,6.2,6.3v19.2h8.6v-19.9c0-4.1-1.2-7.2-3.6-9.5C287.9,244.8,284.6,243.7,280.5,243.7z"/>
		<path class="st0" d="M312.6,243.7c-4.2,0-7.8,0.6-10.8,1.9l1.6,6.8c2.4-1,5.2-1.5,8.3-1.5c4.3,0,6.4,1.9,6.4,5.6v1.5
			c-2.1-0.3-3.9-0.5-5.6-0.5c-3.8,0-6.8,0.9-9.1,2.7c-2.3,1.8-3.4,4.2-3.4,7.2c0,2.9,1.1,5.3,3.3,7.1c2.2,1.8,5.4,2.7,9.5,2.7
			c5.5,0,10.1-0.9,13.6-2.8V257c0-4.3-1.2-7.6-3.5-9.9C320.5,244.8,317.1,243.7,312.6,243.7z M317.9,270.1c-1.1,0.6-2.5,0.9-4.4,0.9
			c-3.5,0-5.2-1.3-5.2-4c0-2.7,1.7-4.1,5.1-4.1c1.4,0,2.9,0.2,4.4,0.5V270.1z"/>
		<path class="st0" d="M334.3,246.4v30h8.6v-24.5c1.5-0.7,3.2-1.1,5.2-1.1c1.5,0,2.7,0.2,3.7,0.5l1.3-7.1c-1.5-0.4-3.4-0.6-5.6-0.6
			C342.3,243.7,337.9,244.6,334.3,246.4z"/>
		<path class="st0" d="M362.3,230.5c-1.6,0-2.8,0.4-3.7,1.3c-0.9,0.9-1.3,2-1.3,3.5s0.4,2.6,1.3,3.5c0.9,0.9,2.1,1.3,3.7,1.3
			c1.5,0,2.8-0.4,3.6-1.3s1.3-2,1.3-3.5s-0.4-2.6-1.3-3.5S363.8,230.5,362.3,230.5z"/>
		<rect x="358" y="244.4" class="st0" width="8.6" height="32"/>
		<path class="st0" d="M388.9,270c-2.9,0-4.3-1.8-4.3-5.3v-13.4h6.9v-6.9h-6.9V237l-8.6,0.4v6.9h-4.3v6.9h4.3v13.5
			c0,8.2,3.8,12.3,11.3,12.3c2.1,0,3.9-0.2,5.4-0.6l-0.4-6.9C391.1,269.9,390,270,388.9,270z"/>
		<path class="st0" d="M414.7,257.4c-0.8,3.5-2.1,7-3.7,10.5c-4.4-7.3-6.7-15.1-7.1-23.5h-8.7c0.5,6,1.6,11.3,3.3,16
			c1.8,4.7,4.4,9.4,7.9,14.1c-0.9,1.5-2.3,2.9-4.3,4c-1.9,1.1-3.9,1.9-5.8,2.2l1.4,7.3c7.2-1.2,13.2-6,18-14.4
			c5.3-9.4,8.3-19.1,9.1-29.2h-8.6C416,249.6,415.5,253.9,414.7,257.4z"/>
		<path class="st0" d="M463.2,231.8c-6.2,0-11.1,2.1-14.6,6.2c-3.5,4.2-5.3,9.6-5.3,16.4c0,6.8,1.8,12.3,5.3,16.4
			c3.5,4.2,8.4,6.2,14.5,6.2c6.2,0,11-2.1,14.5-6.2c3.5-4.1,5.3-9.6,5.3-16.4c0-6.8-1.8-12.3-5.3-16.4
			C474.2,233.9,469.4,231.8,463.2,231.8z M471,265.3c-1.8,2.6-4.4,3.9-7.8,3.9c-3.5,0-6.1-1.3-7.9-3.9c-1.8-2.6-2.7-6.2-2.7-10.8
			c0-4.6,0.9-8.2,2.7-10.8c1.8-2.6,4.4-3.9,7.9-3.9c3.4,0,6,1.3,7.8,3.9c1.8,2.6,2.7,6.2,2.7,10.8
			C473.7,259.1,472.8,262.7,471,265.3z"/>
		<path class="st0" d="M489.9,246.4v30h8.6v-24.5c1.5-0.7,3.2-1.1,5.2-1.1c1.5,0,2.7,0.2,3.7,0.5l1.3-7.1c-1.5-0.4-3.4-0.6-5.6-0.6
			C497.9,243.7,493.5,244.6,489.9,246.4z"/>
		<path class="st0" d="M515.6,248.1c-3.1,3-4.6,6.9-4.6,11.9c0,4.7,1.3,8.4,4,11c2.6,2.6,6.3,3.9,11,3.9c2,0,3.9-0.4,5.9-1.1v1.4
			c0,1.9-0.7,3.3-2,4.3s-3.3,1.5-5.7,1.5c-3.2,0-6-0.5-8.6-1.6l-1.8,6.8c3.2,1.3,6.8,1.9,10.9,1.9c4.9,0,8.8-1.2,11.6-3.7
			c2.8-2.4,4.2-5.8,4.2-10.2v-28.2c-3.8-1.7-7.9-2.5-12.5-2.5C522.7,243.7,518.7,245.1,515.6,248.1z M531.8,266.7
			c-1.5,0.7-3,1.1-4.5,1.1c-2.4,0-4.2-0.8-5.5-2.3c-1.3-1.5-2-3.6-2-6.2c0-2.6,0.7-4.7,2.1-6.2c1.4-1.5,3.4-2.3,5.9-2.3
			c1.2,0,2.5,0.2,3.9,0.7V266.7z"/>
		<path class="st0" d="M559.3,243.7c-4.2,0-7.8,0.6-10.8,1.9l1.6,6.8c2.4-1,5.2-1.5,8.3-1.5c4.3,0,6.4,1.9,6.4,5.6v1.5
			c-2.1-0.3-3.9-0.5-5.6-0.5c-3.8,0-6.8,0.9-9.1,2.7c-2.3,1.8-3.4,4.2-3.4,7.2c0,2.9,1.1,5.3,3.3,7.1c2.2,1.8,5.4,2.7,9.5,2.7
			c5.5,0,10.1-0.9,13.6-2.8V257c0-4.3-1.2-7.6-3.5-9.9C567.3,244.8,563.8,243.7,559.3,243.7z M564.7,270.1c-1.1,0.6-2.5,0.9-4.4,0.9
			c-3.5,0-5.2-1.3-5.2-4c0-2.7,1.7-4.1,5.1-4.1c1.4,0,2.9,0.2,4.4,0.5V270.1z"/>
		<path class="st0" d="M605.7,247c-2.5-2.2-6-3.3-10.6-3.3c-5.1,0-9.8,0.9-14.1,2.8v30h8.6v-24.5c1.6-0.8,3.5-1.1,5.5-1.1
			c3.9,0,5.8,2.1,5.8,6.3v19.3h8.6v-19.9C609.5,252.3,608.2,249.2,605.7,247z"/>
		<rect x="617.4" y="244.4" class="st0" width="8.6" height="32"/>
		<path class="st0" d="M621.7,230.5c-1.6,0-2.8,0.4-3.7,1.3c-0.9,0.9-1.3,2-1.3,3.5s0.4,2.6,1.3,3.5c0.9,0.9,2.1,1.3,3.7,1.3
			c1.5,0,2.8-0.4,3.6-1.3s1.3-2,1.3-3.5s-0.4-2.6-1.3-3.5S623.3,230.5,621.7,230.5z"/>
		<path class="st0" d="M656.7,250.2v-5.8h-23.8v6.9h14.5c-3.1,5.7-8.2,12.1-15.2,19.3v5.8h25.5v-6.9h-14.8
			C648.4,263.5,653,257.1,656.7,250.2z"/>
		<path class="st0" d="M674.1,243.7c-4.2,0-7.8,0.6-10.8,1.9l1.6,6.8c2.4-1,5.2-1.5,8.3-1.5c4.3,0,6.4,1.9,6.4,5.6v1.5
			c-2.1-0.3-3.9-0.5-5.6-0.5c-3.8,0-6.8,0.9-9.1,2.7c-2.3,1.8-3.4,4.2-3.4,7.2c0,2.9,1.1,5.3,3.3,7.1c2.2,1.8,5.4,2.7,9.5,2.7
			c5.5,0,10.1-0.9,13.6-2.8V257c0-4.3-1.2-7.6-3.5-9.9C682.1,244.8,678.7,243.7,674.1,243.7z M679.5,270.1c-1.1,0.6-2.5,0.9-4.4,0.9
			c-3.5,0-5.2-1.3-5.2-4c0-2.7,1.7-4.1,5.1-4.1c1.4,0,2.9,0.2,4.4,0.5V270.1z"/>
		<path class="st0" d="M709.7,270c-2.9,0-4.3-1.8-4.3-5.3v-13.4h6.9v-6.9h-6.9V237l-8.6,0.4v6.9h-4.3v6.9h4.3v13.5
			c0,8.2,3.8,12.3,11.3,12.3c2.1,0,3.9-0.2,5.4-0.6l-0.4-6.9C712,269.9,710.9,270,709.7,270z"/>
		<rect x="718.8" y="244.4" class="st0" width="8.6" height="32"/>
		<path class="st0" d="M723.1,230.5c-1.6,0-2.8,0.4-3.7,1.3c-0.9,0.9-1.3,2-1.3,3.5s0.4,2.6,1.3,3.5c0.9,0.9,2.1,1.3,3.7,1.3
			c1.5,0,2.8-0.4,3.6-1.3s1.3-2,1.3-3.5s-0.4-2.6-1.3-3.5S724.7,230.5,723.1,230.5z"/>
		<path class="st0" d="M749.7,243.7c-4.8,0-8.6,1.5-11.4,4.6c-2.8,3-4.2,7.1-4.2,12.1c0,5,1.4,9.1,4.2,12.2
			c2.8,3.1,6.6,4.6,11.4,4.6s8.6-1.5,11.4-4.6c2.8-3,4.2-7.1,4.2-12.2c0-5-1.4-9.1-4.2-12.1C758.2,245.2,754.5,243.7,749.7,243.7z
			 M754.7,267.4c-1.2,1.7-2.8,2.6-5,2.6c-2.2,0-3.8-0.9-5-2.6c-1.2-1.7-1.8-4.1-1.8-7.1c0-3,0.6-5.3,1.8-7c1.2-1.7,2.9-2.6,5-2.6
			c2.2,0,3.8,0.8,5,2.5c1.2,1.7,1.8,4,1.8,7S755.8,265.7,754.7,267.4z"/>
		<path class="st0" d="M796.5,247c-2.5-2.2-6-3.3-10.6-3.3c-5.1,0-9.8,0.9-14.1,2.8v30h8.6v-24.5c1.6-0.8,3.5-1.1,5.5-1.1
			c3.9,0,5.8,2.1,5.8,6.3v19.3h8.6v-19.9C800.3,252.3,799,249.2,796.5,247z"/>
	</g>
</g>
</svg>
